<?xml version="1.0" encoding="utf-8"?>
<!-- Generator: Adobe Illustrator 25.2.0, SVG Export Plug-In . SVG Version: 6.00 Build 0)  -->
<svg version="1.1" id="Layer_1" xmlns="http://www.w3.org/2000/svg" xmlns:xlink="http://www.w3.org/1999/xlink" x="0px" y="0px"
	 viewBox="0 0 200 200" style="enable-background:new 0 0 200 200;" xml:space="preserve">
<style type="text/css">
	.st0{fill:#A3A3A2;}
</style>
<g>
	<path class="st0" d="M92.1,96.2l7.1-7.1v18.6c0,1.5,1.3,2.8,2.8,2.8s2.8-1.3,2.8-2.8V89.1l7.1,7.1c1.1,1.1,2.9,1.1,4,0
		c0.5-0.5,0.8-1.2,0.8-2s-0.3-1.5-0.8-2L104,80.4c-0.3-0.3-0.6-0.5-0.9-0.6c-0.3-0.1-0.7-0.2-1-0.2H102c-0.4,0-0.7,0.1-1.1,0.2
		c-0.3,0.1-0.7,0.3-0.9,0.6L88.2,92.2c-0.5,0.5-0.8,1.2-0.8,2s0.3,1.5,0.8,2C89.3,97.3,91,97.3,92.1,96.2z"/>
	<path class="st0" d="M141.6,62.7H62.4c-2.1,0-3.9,1.7-3.9,3.9v56.9c0,2.1,1.7,3.9,3.9,3.9h35.7v8.4H79.4c-2.1,0-3.9,1.7-3.9,3.9
		c0,2.2,1.7,3.9,3.9,3.9h45.1c2.1,0,3.9-1.7,3.9-3.9c0-2.1-1.7-3.9-3.9-3.9h-18.6v-8.4h35.7c2.1,0,3.9-1.7,3.9-3.9V66.6
		C145.5,64.4,143.7,62.7,141.6,62.7z M137.7,119.6H66.3V70.5h71.4V119.6z"/>
</g>
</svg>
