<?xml version="1.0" encoding="utf-8"?>
<!-- Generator: Adobe Illustrator 25.2.0, SVG Export Plug-In . SVG Version: 6.00 Build 0)  -->
<svg version="1.1" id="Layer_1" xmlns="http://www.w3.org/2000/svg" xmlns:xlink="http://www.w3.org/1999/xlink" x="0px" y="0px"
	 viewBox="0 0 200 200" style="enable-background:new 0 0 200 200;" xml:space="preserve">
<style type="text/css">
	.st0{fill:#A3A3A2;}
</style>
<g>
	<path class="st0" d="M123.9,116.9l-0.2-1l-1.3-0.4l-0.9,1.5c-0.4,0.8-0.9,1.5-1.2,2.3c-0.4,1-0.6,1.8-0.7,2.6c0,3.5,0,6.9,0,10.4
		l0,3.6c0,0.7,0,1.1-0.1,1.2c-0.1,0-0.3,0.1-1.2,0.1H64c-0.8,0-1-0.1-1.1-0.1c0-0.1-0.1-0.3-0.1-1.2V63.8c0-0.7,0.1-1,0.1-1
		c0.1,0,0.3-0.1,1.1-0.1h40.1c0.1,0,0.2,0,0.3,0l0,12.4c0,0.9,0.1,1.7,0.6,2.2c0.5,0.5,1.2,0.6,2.2,0.6h12.5v19.5l1.5-2
		c0.6-0.8,1-1.5,1.5-2.3c0.2-0.3,0.3-0.6,0.5-0.8c0.5-0.9,0.8-1.8,0.8-2.9c0-4.3,0-8.6,0-12.9c0-1.1-0.3-1.9-1.1-2.7
		c-4.8-4.8-9.6-9.6-14.4-14.4c-0.7-0.7-1.5-1-2.5-1c0,0,0,0,0,0c-9.4,0-18.8,0-28.2,0l-14.1,0c-3.2,0-5.1,1.9-5.1,5
		c0,24.4,0,48.8,0,73.2c0,3.2,1.9,5,5.1,5c9.2,0,18.4,0,27.6,0c9.2,0,18.4,0,27.6,0c3.2,0,5.1-1.9,5.1-5.1l0-19
		C123.9,117.3,123.9,117.1,123.9,116.9z M108.7,73.6v-7.4l7.4,7.4H108.7z"/>
	<path class="st0" d="M120.8,98.4c-0.1,0.2-0.2,0.4-0.3,0.6c-0.8,1.4-1.5,2.8-2.3,4.1c-1.9,3.4-3.8,7-5.6,10.5
		c-1.1,2.2-1.9,4.6-2.6,6.8c-0.3,1.1-0.5,2.2-0.7,3.3c-0.1,0.6-0.2,1.3-0.3,1.9c0,0.1-0.1,0.2,0,0.1l-0.2,0
		c-1.8,0.4-3.7,0.9-5.5,1.2c-0.8,0.1-1.8,0.1-2.9-0.1c-0.5-0.1-0.8-0.3-0.9-0.5c-0.2-0.4-0.1-0.9,0-1.4c0.1-0.4,0.2-0.8,0.3-1.2
		c0.1-1-0.2-1.6-0.6-1.9c-0.3-0.3-0.9-0.6-1.8-0.5c-1,0.2-1.8,0.5-2.4,0.9c-1.2,0.8-2.4,1.7-3.6,2.6l-0.9,0.7
		c-0.4,0.3-0.7,0.6-1.1,0.8c-0.6,0.5-1.2,1-1.9,1.4c0,0-0.1,0-0.2,0c0-0.1,0-0.2,0-0.2c0.8-1.6,1.6-3.1,2.5-4.6l0.1-0.2
		c0.2-0.4,0.5-0.8,0.7-1.2c0.4-0.6,0.8-1.3,1.1-2c0.4-0.9,0.4-1.7-0.1-2.3c-0.5-0.6-1.2-0.8-2.2-0.7c-0.9,0.2-2.2,0.5-3.3,1.2
		c-2.3,1.5-4.5,3-6.7,4.5l-3.7,2.5c-1.1,0.7-2.1,1.5-3.2,2.2c-0.1,0-0.3,0-0.5,0c0-0.4,0-0.7,0-1l0.1-0.2c1-1.5,2.2-2.4,3.7-2.8
		c0.5-0.1,1.1-0.4,1.7-0.9c0.4-0.3,0.5-0.7,0.6-1.2l0.2-1l-1-0.2c-0.3-0.1-0.6-0.2-1-0.1c-3.7,0.7-6.5,3-8.1,7c-0.4,1-0.3,2,0.2,2.8
		c0.6,0.8,1.6,1.3,2.8,1.2c0.6,0,1.8-0.2,2.7-0.8c1.4-0.9,2.7-1.8,4.1-2.8c1-0.7,1.9-1.3,2.9-2c2.1-1.4,4.2-2.8,6.4-4.1
		c-0.2,0.3-0.5,0.7-0.7,1c-0.5,0.8-1.1,1.6-1.6,2.4c-0.5,0.9-1.2,2.2-1.5,3.5c-0.2,0.9,0.1,2.1,0.7,2.9c0.4,0.5,1,0.8,1.7,0.8
		c0.5,0,1.1-0.2,1.7-0.5c1.2-0.7,2.5-1.5,4-2.6c0.8-0.6,1.6-1.2,2.4-1.8c0.6-0.4,1.2-0.9,1.8-1.3c-0.2,1.4,0,2.5,0.6,3.3
		c0.7,0.9,1.7,1.5,3.3,1.7c1.6,0.2,3.4,0.1,5.4-0.3c1.8-0.4,3.9-0.8,5.5-1.9c5.3-3.7,8.7-7.6,10.8-12.2c0.2-0.5,0.5-1,0.8-1.4
		l7.2-13.2l-7.7-4.2L120.8,98.4z"/>
	<path class="st0" d="M140.6,84c-0.8-1.8-1.1-3,0.1-4.4c0.3-0.4,0.4-0.8,0.4-1.3c-0.1-0.6-0.5-1.1-1.1-1.5l-0.3-0.2l0.2-0.4
		c0.3-0.6,0.6-1.1,0.9-1.7c0.6-1.2,0.3-2.3-0.7-2.9c-1-0.6-2.1-0.2-2.8,1c-0.3,0.6-0.6,1.1-0.9,1.7l-0.2,0.4c-1.7-0.4-2.1-0.1-3,1.6
		l-10.8,20l7.2,3.9l7.6-14.1c0.5,1.8,0.4,3.1-0.3,4.4c-0.6,1-1.1,2.1-1.7,3.1l-1.9,3.5c-1,1.8-2,3.6-2.9,5.4
		c-0.3,0.6-0.4,1.3-0.2,1.9c0.2,0.5,0.6,0.9,1.1,1.1c0.2,0.1,0.5,0.1,0.7,0.1c0.6,0,1.3-0.3,1.9-1.4c0.7-1.2,1.3-2.4,1.9-3.6
		c1.4-2.5,2.8-5.2,4.2-7.7C141.8,90,142,87,140.6,84z"/>
	<path class="st0" d="M111.1,89h-40c-0.2,0-0.5,0-0.8,0.1c-1.1,0.3-1.7,1.2-1.6,2.3c0.1,1.1,0.8,1.8,1.9,1.9c0.2,0,0.5,0,0.8,0
		l0.2,0l19.6,0l19.5,0l0.2,0c0.1,0,0.2,0,0.3,0c0.2,0,0.4,0,0.6,0c0.6-0.1,1.2-0.4,1.5-0.8c0.3-0.4,0.4-0.9,0.3-1.3
		c-0.1-0.7-0.7-1.2-1.2-1.7C112.1,88.9,111.6,89,111.1,89z"/>
	<path class="st0" d="M110.2,100.9c0.5,0,1,0,1.5,0c1.2,0,2-0.8,2.1-1.9c0.1-1.2-0.6-2-1.8-2.3c-0.3-0.1-0.6-0.1-1,0H71.4
		c-0.3,0-0.7,0-1.1,0.1c-1,0.3-1.6,1.1-1.6,2.2c0.1,1.1,0.8,1.8,1.9,1.9c0.2,0,0.5,0,0.9,0l37.7,0
		C109.5,100.9,109.8,100.9,110.2,100.9z"/>
	<path class="st0" d="M113.7,83.3c-0.2-0.7-0.7-1.2-1.3-1.7c-0.4-0.3-0.9-0.3-1.3-0.3l-39.7,0c-0.3,0-0.6,0-0.9,0.1
		c-0.6,0.2-1.1,0.5-1.4,1c-0.2,0.4-0.3,0.9-0.2,1.3c0.2,0.7,0.8,1.3,1.3,1.7c0.3,0.2,0.6,0.3,0.9,0.3c0.1,0,0.3,0,0.4,0l0.2,0
		l19.6,0l19.5,0l0.2,0c0.3,0,0.6,0,0.9,0c0.7-0.1,1.2-0.4,1.5-0.9C113.7,84.3,113.8,83.8,113.7,83.3z"/>
	<path class="st0" d="M96.3,104.3l-19.7,0c-1.8,0-3.6,0-5.4,0c-1.7,0-2.4,1.1-2.4,2.1c0,0.6,0.2,1.1,0.5,1.5
		c0.3,0.3,0.9,0.7,1.9,0.7l24.8,0c0.1,0,0.3,0,0.4,0c0.2,0,0.5,0,0.7,0c1.2-0.1,1.9-0.9,2-2c0.1-1.1-0.6-1.9-1.7-2.2
		C97,104.3,96.7,104.3,96.3,104.3z"/>
	<path class="st0" d="M96.5,73.7c-0.2,0-0.5,0-0.9,0l-22.7,0c-0.7,0-1.4,0-2.1,0c-1.3,0-2.1,0.9-2.1,2.1c0,1.2,0.8,2.1,2.1,2.1
		c0.2,0,0.4,0,0.6,0l24.3,0c0.1,0,0.2,0,0.2,0c0.2,0,0.3,0,0.5,0c1.2-0.1,1.9-0.9,1.9-2.1C98.5,74.7,97.7,73.9,96.5,73.7z"/>
</g>
</svg>
