<?xml version="1.0" encoding="utf-8"?>
<!-- Generator: Adobe Illustrator 25.2.0, SVG Export Plug-In . SVG Version: 6.00 Build 0)  -->
<svg version="1.1" id="Layer_1" xmlns="http://www.w3.org/2000/svg" xmlns:xlink="http://www.w3.org/1999/xlink" x="0px" y="0px"
	 viewBox="0 0 200 200" style="enable-background:new 0 0 200 200;" xml:space="preserve">
<path class="st0" d="M132.7,117.1l-0.2-1l-1.2-0.4l-0.9,1.5c-0.5,0.7-0.9,1.5-1.2,2.3c-0.4,1-0.6,1.8-0.6,2.6c0,3.4,0,6.9,0,10.3
	v3.7c0,0.7,0,1.1-0.1,1.2c-0.1,0-0.4,0.1-1.2,0.1H72.8c-0.7,0-1,0-1.1-0.1c0-0.1-0.1-0.4-0.1-1.2V63.9c0-0.7,0-1,0.1-1
	c0.1,0,0.4-0.1,1.1-0.1h40c0.1,0,0.1,0,0.2,0v12.4c0,1,0.1,1.7,0.6,2.2c0.5,0.5,1.2,0.6,2.2,0.6h12.4v19.5l1.5-2
	c0.6-0.7,1-1.6,1.5-2.3c0.1-0.2,0.4-0.6,0.5-0.9c0.5-0.9,0.7-1.8,0.7-3c0-4.3,0-8.6,0-12.9c0-1.1-0.4-2-1.1-2.7
	c-4.8-4.8-9.6-9.6-14.4-14.4c-0.7-0.7-1.5-1-2.5-1c-9.4,0-18.8,0-28.2,0H72.2c-3.2,0-5,1.8-5,5c0,24.4,0,48.8,0,73.2
	c0,3.2,1.8,5,5,5c9.2,0,18.4,0,27.6,0s18.4,0,27.6,0c3.2,0,5-1.8,5-5v-19C132.7,117.6,132.7,117.4,132.7,117.1z M117.5,73.9v-7.4
	l7.4,7.4H117.5z" fill="#A3A3A2"/>
<path class="st0" d="M120,112.2H80.1c-0.2,0-0.5,0-0.7,0.1c-1.1,0.2-1.7,1.1-1.6,2.2c0.1,1.1,0.9,1.8,1.8,2c0.2,0,0.5,0,0.7,0h0.2
	h19.6h19.6h0.2c0.1,0,0.1,0,0.2,0c0.2,0,0.4,0,0.6,0c0.6-0.1,1.1-0.4,1.5-0.9c0.2-0.4,0.4-0.9,0.2-1.4c-0.1-0.7-0.6-1.2-1.1-1.7
	C121,112.1,120.5,112.2,120,112.2z" fill="#A3A3A2"/>
<path class="st0" d="M119,124.1c0.5,0,1,0,1.5,0c1.1,0,2-0.7,2.1-2c0.1-1.1-0.6-2.1-1.8-2.3c-0.2,0-0.6,0-1,0H80.4
	c-0.4,0-0.7,0-1.1,0.1c-1,0.2-1.6,1.1-1.6,2.2c0.1,1.1,0.7,1.8,1.8,2c0.2,0,0.5,0,0.9,0H118C118.4,124.1,118.7,124.1,119,124.1z" fill="#A3A3A2"/>
<path class="st0" d="M122.5,106.5c-0.1-0.7-0.7-1.2-1.4-1.7c-0.4-0.4-0.9-0.2-1.4-0.2H80c-0.2,0-0.6,0-0.9,0.1
	c-0.6,0.1-1.1,0.5-1.4,1c-0.2,0.4-0.2,0.9-0.1,1.4c0.2,0.7,0.9,1.2,1.4,1.7c0.2,0.2,0.6,0.2,0.9,0.2c0.1,0,0.2,0,0.4,0h0.2h19.6
	h19.6h0.2c0.2,0,0.6,0,0.9,0c0.6-0.1,1.2-0.4,1.5-0.9C122.5,107.5,122.6,107,122.5,106.5z" fill="#A3A3A2"/>
<path class="st0" d="M105.1,127.5H85.4c-1.8,0-3.6,0-5.4,0c-1.7,0-2.3,1.1-2.5,2.1c0,0.6,0.1,1.1,0.5,1.5c0.2,0.4,0.9,0.7,1.8,0.7
	h24.9c0.1,0,0.2,0,0.4,0c0.2,0,0.5,0,0.7,0c1.1-0.1,2-0.9,2-2s-0.6-2-1.7-2.2C105.9,127.5,105.6,127.5,105.1,127.5z" fill="#A3A3A2"/>
<path class="st0" d="M105.4,96.9c-0.2,0-0.5,0-0.9,0H81.8c-0.7,0-1.4,0-2.1,0c-1.4,0-2.1,0.9-2.1,2.1c0,1.2,0.9,2.1,2.1,2.1
	c0.2,0,0.4,0,0.6,0h24.4c0.1,0,0.1,0,0.2,0s0.2,0,0.5,0c1.1-0.1,1.8-1,2-2.1C107.3,97.9,106.6,97,105.4,96.9z" fill="#e1251b"/>
<path class="st0" d="M132.8,85.7h-4.3v37.4h4.3V85.7z" fill="#A3A3A2"/>
</svg>
