<svg width="15" height="21" viewBox="0 0 15 21" fill="none" xmlns="http://www.w3.org/2000/svg">
<path d="M4.2141 12.1711C5.21947 12.702 6.55996 11.972 6.76103 10.8437C6.76103 10.7109 6.76103 10.5118 6.76103 10.3791C6.76103 9.11806 6.76103 7.79067 6.76103 6.52965C6.76103 6.46328 6.76103 6.3969 6.76103 6.33053C6.35889 6.33053 5.95673 6.33053 5.55459 6.33053C5.55459 6.3969 5.55459 6.46328 5.55459 6.52965C5.55459 7.85704 5.55459 9.11806 5.55459 10.4455C5.55459 10.5118 5.55459 10.5782 5.55459 10.7109C5.48756 10.9764 5.21947 11.2419 4.95137 11.2419C4.68328 11.2419 4.41518 11.0428 4.34816 10.7109C4.34816 10.6446 4.34816 10.6445 4.34816 10.5782C4.34816 8.52072 4.34816 6.46327 4.34816 4.33944C4.34816 4.27308 4.34816 4.27309 4.34816 4.20672V2.74658C4.34816 2.4811 4.34816 2.21563 4.34816 1.88378C4.34816 1.6183 4.61625 1.41919 4.88434 1.41919C5.68863 1.41919 6.49293 1.41919 7.29722 1.41919C7.63234 1.41919 7.8334 1.68466 7.8334 1.95014C7.8334 2.21561 7.8334 2.41473 7.8334 2.68021V4.14034C8.23554 4.14034 8.6377 4.14034 9.03985 4.14034V2.94568C9.03985 2.87931 9.03985 2.81294 9.03985 2.68021V2.61383C9.03985 2.41472 9.03985 2.14925 9.03985 1.95014C9.03985 0.888223 8.23554 0.158166 7.16316 0.0917969C6.42589 0.0917969 5.62161 0.0917969 4.88434 0.0917969C4.61625 0.0917969 4.28114 0.158158 4.08007 0.290897C3.47685 0.556376 3.20876 1.02096 3.07471 1.61829V10.7773C3.27578 11.441 3.61089 11.9056 4.2141 12.1711Z" fill="#E1251B"/>
<path d="M7.96731 2.68018C7.96731 2.74655 7.96731 2.87928 7.96731 2.94565C6.76087 2.94565 5.62147 2.94565 4.41504 2.94565C4.41504 2.87928 4.41504 2.74655 4.41504 2.68018V4.14031C5.62147 4.14031 6.8279 4.14031 7.96731 4.14031V2.68018Z" fill="#E0E0E0"/>
<path d="M14.9378 12.5692C14.9378 10.7772 14.9378 9.05162 14.9378 7.25964C14.9378 6.86142 14.8708 6.39684 14.8038 5.99862C14.3346 4.40575 13.1952 3.34385 11.5196 3.07837C10.8493 2.94563 10.1121 3.01199 9.37482 3.01199C9.3078 3.01199 9.24078 3.01199 9.10673 3.01199V4.20666C9.44185 4.20666 9.77697 4.20666 10.1121 4.20666C10.1121 5.40131 10.1121 6.52958 10.1121 7.72424C11.3185 7.72424 12.4579 7.72424 13.6644 7.72424C13.6644 9.3171 13.6644 10.9763 13.6644 12.5692C13.6644 14.7594 13.6644 17.016 13.6644 19.2062C9.57589 19.2062 5.4204 19.2062 1.33193 19.2062C1.33193 16.4186 1.33193 13.6311 1.33193 10.8436C1.33193 8.58705 1.33193 6.39685 1.33193 4.14028C1.93515 4.14028 2.47135 4.14028 3.07456 4.14028C3.07456 4.20665 3.07456 4.27302 3.07456 4.33938C3.07456 6.39684 3.07456 8.38794 3.07456 10.4454C3.07456 10.5781 3.07456 10.7109 3.07456 10.8436V1.75098C3.07456 1.88372 3.07456 1.95009 3.07456 2.08282C3.07456 2.41467 3.07456 2.68015 3.07456 3.01199C2.0692 3.01199 1.13085 3.01199 0.125488 3.01199C0.125488 5.66678 0.125488 8.25518 0.125488 10.91C0.125488 14.0957 0.125488 17.2815 0.125488 20.4008C5.01825 20.4008 9.97803 20.4008 14.8708 20.4008C14.9378 17.8124 14.9378 15.1576 14.9378 12.5692ZM11.3855 6.52959C11.3855 5.79953 11.3855 5.00308 11.3855 4.27301C12.3239 4.33938 13.5303 5.33494 13.6644 6.52959C12.9271 6.52959 12.1898 6.52959 11.3855 6.52959Z" fill="#E0E0E0"/>
</svg>
