<svg width="18" height="13" viewBox="0 0 18 13" fill="none" xmlns="http://www.w3.org/2000/svg">
<path d="M1.03911 0C0.465229 0 0 0.454695 0 1.01562C0 1.57655 0.465229 2.03125 1.03911 2.03125H16.0023C16.5761 2.03125 17.0414 1.57655 17.0414 1.01562C17.0414 0.454695 16.5761 0 16.0023 0H1.03911ZM1.03911 5.48438C0.465229 5.48438 0 5.93906 0 6.49999C0 7.06092 0.465229 7.51561 1.03911 7.51561H16.0023C16.5761 7.51561 17.0414 7.06092 17.0414 6.49999C17.0414 5.93906 16.5761 5.48438 16.0023 5.48438H1.03911ZM1.03911 10.9688C0.465229 10.9688 0 11.4234 0 11.9844C0 12.5453 0.465229 13 1.03911 13H16.0023C16.5761 13 17.0414 12.5453 17.0414 11.9844C17.0414 11.4234 16.5761 10.9688 16.0023 10.9688H1.03911Z" fill="black"/>
</svg>
