<svg width="22" height="18" viewBox="0 0 22 18" fill="none" xmlns="http://www.w3.org/2000/svg">
<path d="M8.7999 18.0002C7.7999 18.0002 6.8999 17.2002 6.8999 16.1002C6.8999 15.0002 7.6999 14.2002 8.7999 14.2002C9.7999 14.2002 10.6999 15.0002 10.6999 16.1002C10.6999 17.2002 9.7999 18.0002 8.7999 18.0002Z" fill="black"/>
<path d="M16.2999 18.0002C15.2999 18.0002 14.3999 17.2002 14.3999 16.1002C14.3999 15.0002 15.1999 14.2002 16.2999 14.2002C17.2999 14.2002 18.1999 15.0002 18.1999 16.1002C18.1999 17.2002 17.3999 18.0002 16.2999 18.0002Z" fill="black"/>
<path d="M17.1 12.6001H7.5C6.2 12.6001 5.1 11.7001 4.9 10.4001L3.6 3.50006C3.6 3.20006 3.3 3.10007 3.1 3.10007H1.1C0.500002 3.10007 0 2.60006 0 2.00006C0 1.40006 0.500002 0.900055 1.1 0.900055H3.1C4.4 0.900055 5.5 1.80007 5.7 3.10007L7 10.0001C7 10.3001 7.3 10.4001 7.5 10.4001H17.1C17.4 10.4001 17.6 10.2001 17.6 10.0001L18.8 3.70007C18.8 3.50007 18.7 3.30005 18.7 3.30005C18.6 3.20005 18.5 3.10007 18.3 3.10007L7.3 3.00006C6.7 3.00006 6.2 2.50005 6.2 1.90005C6.2 1.30005 6.7 0.900049 7.3 0.800049L18.3 0.900055C19.1 0.900055 19.8 1.30005 20.4 1.90005C20.9 2.50005 21.1 3.30007 21 4.10007L19.8 10.4001C19.5 11.7001 18.4 12.6001 17.1 12.6001Z" fill="black"/>
</svg>
