<svg width="20" height="15" viewBox="0 0 20 15" fill="none" xmlns="http://www.w3.org/2000/svg">
<path d="M18.2 14.8H9.79996C9.29996 14.8 8.79996 14.4 8.79996 13.8C8.79996 13.3 9.19996 12.8 9.79996 12.8H17.7V10.9C16.3 10.5 15.3 9.20001 15.3 7.70001C15.3 6.20001 16.3 4.9 17.7 4.5V2.5H6.69995C6.19995 2.5 5.69995 2.1 5.69995 1.5C5.69995 0.9 6.09995 0.5 6.69995 0.5H18.3C19.1 0.5 19.7 1.09999 19.7 1.89999V5.29999C19.7 5.79999 19.3 6.29999 18.7 6.29999C17.9 6.29999 17.3 6.90001 17.3 7.70001C17.3 8.50001 17.9 9.10001 18.7 9.10001C19.2 9.10001 19.7 9.50001 19.7 10.1V13.4C19.6 14.2 19 14.8 18.2 14.8Z" fill="black"/>
<path d="M18.6 10.9999C16.7 10.9999 15.2 9.49995 15.2 7.59995C15.2 5.69995 16.7 4.19995 18.6 4.19995C19.1 4.19995 19.6 4.59995 19.6 5.19995C19.6 5.69995 19.2 6.19995 18.6 6.19995C17.8 6.19995 17.2 6.79995 17.2 7.59995C17.2 8.39995 17.8 8.99994 18.6 8.99994C19.1 8.99994 19.6 9.39994 19.6 9.99994C19.6 10.5999 19.1 10.9999 18.6 10.9999Z" fill="black"/>
<path d="M9.8 14.8H1.4C0.600002 14.8 0 14.2 0 13.4V10.1C0 9.60001 0.4 9.10001 1 9.10001C1.8 9.10001 2.4 8.50001 2.4 7.70001C2.4 6.90001 1.8 6.29999 1 6.29999C0.5 6.29999 0 5.89999 0 5.29999V1.89999C0 1.09999 0.600002 0.5 1.4 0.5H3.7C4.2 0.5 4.7 0.9 4.7 1.5C4.7 2.1 4.3 2.5 3.7 2.5H1.9V4.5C3.3 4.9 4.3 6.20001 4.3 7.70001C4.3 9.20001 3.3 10.5 1.9 10.9V12.8H9.8C10.3 12.8 10.8 13.2 10.8 13.8C10.8 14.4 10.3 14.8 9.8 14.8Z" fill="black"/>
<path d="M1 10.9999C0.5 10.9999 0 10.5999 0 9.99994C0 9.39994 0.4 8.99994 1 8.99994C1.8 8.99994 2.4 8.39995 2.4 7.59995C2.4 6.79995 1.8 6.19995 1 6.19995C0.5 6.19995 0 5.79995 0 5.19995C0 4.69995 0.4 4.19995 1 4.19995C2.9 4.19995 4.4 5.69995 4.4 7.59995C4.4 9.49995 2.8 10.9999 1 10.9999Z" fill="black"/>
<path d="M12 7.19995H7.5C7 7.19995 6.5 6.79995 6.5 6.19995C6.5 5.59995 6.9 5.19995 7.5 5.19995H12C12.5 5.19995 13 5.59995 13 6.19995C13 6.79995 12.6 7.19995 12 7.19995Z" fill="black"/>
<path d="M12 7.19995H7.5C7 7.19995 6.5 6.79995 6.5 6.19995C6.5 5.59995 6.9 5.19995 7.5 5.19995H12C12.5 5.19995 13 5.59995 13 6.19995C13 6.79995 12.6 7.19995 12 7.19995Z" fill="black"/>
<path d="M12 10.0999H7.5C7 10.0999 6.5 9.69985 6.5 9.09985C6.5 8.49985 6.9 8.09985 7.5 8.09985H12C12.5 8.09985 13 8.49985 13 9.09985C13 9.69985 12.6 10.0999 12 10.0999Z" fill="black"/>
</svg>
