<svg width="41" height="42" viewBox="0 0 41 42" fill="none" xmlns="http://www.w3.org/2000/svg">
<path d="M40.0001 2.99992C39.8001 2.19992 39.2001 1.69992 38.5001 1.49992C31.2001 -0.100082 23.7001 1.99991 18.5001 7.29991L13.9001 11.8999L8.2001 11.9999C6.1001 11.9999 4.1001 12.8999 2.7001 14.2999L1.2001 15.7999C0.400098 16.5999 0.400098 17.7999 1.2001 18.5999L4.60009 21.9999C5.40009 22.7999 6.60008 22.7999 7.40008 21.9999C8.20008 21.1999 8.20008 19.9999 7.40008 19.1999L5.50009 17.2999L5.60009 17.1999C6.30009 16.4999 7.30008 15.9999 8.40008 15.9999L14.9001 15.8999C15.4001 15.8999 15.9001 15.6999 16.3001 15.2999L21.5001 10.0999C25.5001 6.09992 31.0001 4.29991 36.6001 5.19991C37.4001 10.6999 35.6001 16.2999 31.7001 20.2999L26.5001 25.4999C26.1001 25.8999 25.9001 26.3999 25.9001 26.8999L25.8001 33.3999C25.8001 34.3999 25.4001 35.3999 24.6001 36.1999L24.5001 36.2999L22.6001 34.3999C21.8001 33.5999 20.6001 33.5999 19.8001 34.3999C19.0001 35.1999 19.0001 36.3999 19.8001 37.1999L23.1001 40.4999C23.5001 40.8999 24.0001 41.0999 24.5001 41.0999C25.0001 41.0999 25.5001 40.8999 25.9001 40.4999L27.4001 38.9999C28.9001 37.4999 29.7001 35.5999 29.7001 33.4999L29.8001 27.7999L34.4001 23.1999C39.5001 17.7999 41.6001 10.2999 40.0001 2.99992Z" fill="#E1251B"/>
<path d="M14.3 21.8999C13.5 21.0999 12.3 21.0999 11.5 21.8999L5.6 27.7999C4.8 28.5999 4.8 29.7999 5.6 30.5999C6 30.9999 6.49999 31.1999 6.99999 31.1999C7.49999 31.1999 7.99999 30.9999 8.39999 30.5999L14.3 24.6999C15.1 23.9999 15.1 22.6999 14.3 21.8999Z" fill="#E1251B"/>
<path d="M19.5 27.1999C18.7 26.3999 17.5 26.3999 16.7 27.1999L12.1 31.7999C11.3 32.5999 11.3 33.7998 12.1 34.5998C12.5 34.9998 13 35.1999 13.5 35.1999C14 35.1999 14.5 34.9998 14.9 34.5998L19.5 29.9999C20.3 29.2999 20.3 27.9999 19.5 27.1999Z" fill="#E1251B"/>
</svg>
