<svg width="13" height="14" viewBox="0 0 13 14" fill="none" xmlns="http://www.w3.org/2000/svg">
<path fill-rule="evenodd" clip-rule="evenodd" d="M4.6 4.29991C4.5 4.39991 4.4 4.39991 4.3 4.29991C4.2 4.29991 4.2 4.1999 4.2 4.0999V2.19994C4.2 2.09994 4.2 1.99993 4.3 1.99993L6.4 0.599902C6.5 0.499902 6.6 0.499902 6.7 0.599902L8.8 1.99993C8.9 2.09993 8.9 2.09994 8.9 2.19994V4.0999C8.9 4.1999 8.8 4.29991 8.8 4.29991C8.7 4.39991 8.6 4.29991 8.5 4.29991L7.5 3.5999V7.5999C7.5 8.0999 7.1 8.5999 6.5 8.5999C6 8.5999 5.5 8.1999 5.5 7.5999V3.5999L4.6 4.29991ZM11.4 3.5999C12.1 4.5999 12.5 5.89994 12.5 7.19994C12.5 10.5999 9.8 13.2999 6.5 13.2999C3.2 13.2999 0.5 10.5999 0.5 7.19994C0.5 5.89994 0.899998 4.6999 1.6 3.5999C1.7 3.4999 1.8 3.49993 2 3.49993L3.6 4.49993C3.7 4.49993 3.7 4.59994 3.7 4.69994C3.7 4.79994 3.7 4.89995 3.7 4.89995C3.3 5.49995 3 6.19993 3 6.99993C3 8.99993 4.6 10.5999 6.5 10.5999C8.4 10.5999 10 8.99993 10 6.99993C10 6.19993 9.8 5.49995 9.3 4.89995C9.3 4.79995 9.2 4.79994 9.3 4.69994C9.3 4.59994 9.4 4.59993 9.4 4.49993L11 3.49993C11.2 3.39993 11.3 3.3999 11.4 3.5999Z" fill="#E1251B"/>
</svg>
