<svg width="25" height="24" viewBox="0 0 25 24" fill="none" xmlns="http://www.w3.org/2000/svg">
<path d="M12.0292 3.69995C9.52309 3.69995 7.49316 5.72495 7.49316 8.22495C7.49316 10.725 9.52309 12.75 12.0292 12.75C14.5353 12.75 16.5652 10.725 16.5652 8.22495C16.5652 5.72495 14.5353 3.69995 12.0292 3.69995ZM12.0292 11.5C10.2248 11.5 8.7462 10.025 8.7462 8.22495C8.7462 6.42495 10.2248 4.94995 12.0292 4.94995C13.8335 4.94995 15.3121 6.42495 15.3121 8.22495C15.3121 10.025 13.8335 11.5 12.0292 11.5Z" fill="black"/>
<path d="M12.0292 0C5.38807 0 0 5.375 0 12C0 18.625 5.38807 24 12.0292 24C18.6703 24 24.0584 18.625 24.0584 12C24.0584 5.375 18.6703 0 12.0292 0ZM5.4382 20.5L5.53844 20.225C6.56593 17.125 9.17225 15.05 12.0542 15.05C14.9362 15.05 17.5426 17.125 18.5701 20.225L18.6703 20.5C16.8409 21.925 14.5603 22.75 12.0793 22.75C9.54817 22.75 7.24257 21.9 5.4382 20.5ZM19.6477 19.6C18.4197 16.1 15.3623 13.8 12.0292 13.8C8.67104 13.8 5.63868 16.125 4.4107 19.625C2.45596 17.65 1.25304 14.975 1.25304 12C1.25304 6.075 6.08978 1.25 12.0292 1.25C17.9686 1.25 22.8053 6.075 22.8053 12C22.8053 14.975 21.6024 17.65 19.6477 19.6Z" fill="black"/>
</svg>
